<svg width="115" height="120" viewBox="0 0 115 120" fill="none" xmlns="http://www.w3.org/2000/svg">
<path d="M44.25 22.125L22.5 16.5V108.375L44.25 22.125Z" fill="#3ACC7C"/>
<path d="M0 32.7808L18.75 106.5V36.7497L0 32.7808Z" fill="#3ACC7C"/>
<path d="M114.794 41.1832L95.1486 120H23.3145L53.492 0L114.794 41.1832ZM81.2607 58.8879C74.6392 53.6565 64.5296 52.4129 56.41 53.7445C48.5684 55.0323 41.3086 60.2105 41.85 69.0709C42.258 75.738 46.3715 79.1677 52.0893 81.7852C55.0451 83.1369 57.9976 84.1702 61.0688 85.2311C63.2893 85.9993 65.347 86.9491 67.2311 88.3137C69.5613 90.002 70.3296 93.1587 68.6397 95.5365C65.8776 99.4216 54.7306 97.8652 51.7582 94.7813L50.6666 87.7793H40.8967V101.387C44.0099 103.497 47.2551 105.2 51.0744 106.067L51.0727 106.065C56.3387 107.26 61.528 107.538 66.7611 106.954C75.1277 106.023 82.6909 101.227 82.2721 91.8563C82.0708 87.3255 80.0992 83.4698 76.3477 80.8834C68.8171 75.6941 63.6277 76.1406 56.8307 71.9537C55.3125 71.019 54.4181 69.5571 54.4547 67.9219C54.6048 61.2712 66.1447 62.4676 70.3828 64.4596L71.8957 71.5365L81.2514 71.533L81.2607 58.8879ZM91.1104 42V49.3219H83.7891V55.6781H91.1104V63H97.4672V55.6781H104.789V49.3219H97.4672V42H91.1104Z" fill="#3ACC7C"/>
</svg>
