<svg width="3620" height="768" viewBox="0 0 3620 768" fill="none" xmlns="http://www.w3.org/2000/svg">
<path d="M283.2 141.6L144 105.6V693.6L283.2 141.6Z" fill="#3ACC7C"/>
<path d="M0 209.799L120 681.6V235.2L0 209.799Z" fill="#3ACC7C"/>
<path d="M734.669 263.574L608.94 768H149.201L342.337 0L734.669 263.574ZM520.059 376.883C477.681 343.402 412.978 335.441 361.013 343.964C310.827 352.205 264.364 385.346 267.829 442.053C270.44 484.723 296.768 506.674 333.362 523.426C352.28 532.077 371.175 538.691 390.83 545.48C405.042 550.397 418.212 556.473 430.27 565.206C445.184 576.011 450.1 596.217 439.283 611.436C421.606 636.3 350.266 626.338 331.243 606.601L324.255 561.788H261.729V648.873C281.654 662.382 302.422 673.281 326.865 678.83L326.854 678.818C360.557 686.463 393.768 688.242 427.261 684.508C480.807 678.549 529.213 647.854 526.532 587.882C525.245 558.885 512.624 534.207 488.614 517.654C440.419 484.443 407.207 487.299 363.706 460.503C353.99 454.521 348.265 445.167 348.499 434.701C349.459 392.136 423.315 399.793 450.439 412.541L460.121 457.833L520 457.81L520.059 376.883ZM583.097 268.801V315.658H536.238V356.342H583.097V403.2H623.78V356.342H670.639V315.658H623.78V268.801H583.097Z" fill="#3ACC7C"/>
<path d="M1131.26 130.914C1152.14 130.914 1173.02 133.93 1193.89 139.961C1215.23 145.992 1234.95 154.342 1253.05 165.013C1271.14 175.219 1285.75 187.05 1296.89 200.504L1248.87 263.83C1233.1 247.129 1214.07 233.907 1191.81 224.164C1169.54 214.421 1147.27 209.55 1125 209.55C1110.62 209.55 1097.63 211.87 1086.03 216.509C1074.43 221.148 1065.39 227.644 1058.89 235.994C1052.4 244.345 1049.15 253.856 1049.15 264.526C1049.15 279.372 1053.79 291.434 1063.07 300.713C1072.34 309.527 1084.64 316.95 1099.95 322.981C1115.72 328.548 1132.66 333.884 1150.75 338.987C1169.31 344.09 1187.86 349.889 1206.42 356.384C1224.98 362.879 1241.91 371.462 1257.22 382.132C1272.53 392.339 1284.82 405.793 1294.1 422.494C1303.85 438.732 1308.72 459.377 1308.72 484.429C1308.72 510.409 1301.53 534.766 1287.14 557.498C1273.23 579.767 1253.28 597.86 1227.3 611.778C1201.78 625.232 1170.93 631.959 1134.74 631.959C1110.15 631.959 1085.57 628.248 1060.98 620.825C1036.85 613.402 1014.58 603.427 994.172 590.901C973.759 578.375 956.361 564.225 941.98 548.451L994.172 488.604C1012.73 506.698 1033.37 522.007 1056.11 534.534C1078.84 547.06 1105.05 553.323 1134.74 553.323C1152.84 553.323 1168.61 550.539 1182.06 544.972C1195.52 539.405 1205.96 531.518 1213.38 521.312C1220.8 510.641 1224.51 498.579 1224.51 485.125C1224.51 470.743 1219.87 459.377 1210.6 451.026C1201.78 442.211 1189.72 435.02 1174.41 429.453C1159.1 423.886 1142.17 418.783 1123.61 414.144C1105.52 409.504 1087.19 404.169 1068.63 398.138C1050.08 391.643 1033.14 383.292 1017.83 373.086C1002.52 362.879 990.228 349.657 980.95 333.42C971.671 316.718 967.032 295.841 967.032 270.789C967.032 250.84 970.975 232.515 978.862 215.813C987.213 198.648 998.579 183.802 1012.96 171.276C1027.81 158.286 1045.2 148.311 1065.15 141.352C1085.1 134.393 1107.14 130.914 1131.26 130.914ZM1402.75 451.026L1594.12 284.707H1691.55L1436.15 508.785L1402.75 451.026ZM1449.37 137.873V625H1372.13V137.873H1449.37ZM1540.54 405.097L1702.68 625H1603.86L1474.43 441.979L1540.54 405.097ZM1740.47 284.707H1817.71V625H1740.47V284.707ZM1779.44 126.739C1793.35 126.739 1805.18 131.61 1814.93 141.352C1824.67 151.095 1829.54 162.693 1829.54 176.147C1829.54 190.065 1824.67 201.895 1814.93 211.638C1805.18 221.38 1793.35 226.252 1779.44 226.252C1770.62 226.252 1762.27 224.164 1754.38 219.989C1746.96 215.349 1740.93 209.318 1736.29 201.895C1731.65 194.009 1729.33 185.426 1729.33 176.147C1729.33 167.333 1731.65 159.214 1736.29 151.791C1740.93 144.368 1746.96 138.337 1754.38 133.698C1762.27 129.058 1770.62 126.739 1779.44 126.739ZM1904.25 625V137.873H1981.49V625H1904.25ZM2068.03 625V137.873H2145.27V625H2068.03ZM2309.05 284.707V625H2231.81V284.707H2309.05ZM2474.67 625V443.371C2474.67 424.814 2471.19 409.04 2464.24 396.05C2457.74 382.596 2448.46 372.39 2436.4 365.431C2424.8 358.472 2410.88 354.992 2394.65 354.992C2377.02 354.992 2360.31 359.4 2344.54 368.214C2329.23 377.029 2317.17 388.859 2308.35 403.705V332.028C2318.56 315.326 2333.17 302.104 2352.2 292.362C2371.22 282.619 2391.63 277.748 2413.43 277.748C2441.73 277.748 2466.32 284.011 2487.2 296.537C2508.08 308.599 2524.08 326.229 2535.22 349.425C2546.81 372.158 2552.61 399.298 2552.61 430.845V625H2474.67ZM2790 277.748C2823.4 277.748 2853.33 285.635 2879.77 301.408C2906.22 316.718 2927.32 337.827 2943.1 364.735C2958.87 391.643 2966.76 421.798 2966.76 455.201C2966.76 480.254 2962.12 503.682 2952.84 525.487C2944.03 546.828 2931.5 565.617 2915.26 581.854C2899.03 597.628 2880.24 609.922 2858.9 618.737C2837.55 627.552 2814.59 631.959 2790 631.959C2757.06 631.959 2727.14 624.304 2700.23 608.994C2673.79 593.221 2652.68 571.88 2636.9 544.972C2621.59 518.064 2613.94 488.14 2613.94 455.201C2613.94 430.149 2618.35 406.953 2627.16 385.612C2636.44 363.807 2648.97 344.786 2664.74 328.548C2680.98 312.311 2699.77 299.785 2721.11 290.97C2742.45 282.155 2765.41 277.748 2790 277.748ZM2790 351.513C2770.98 351.513 2754.05 356.152 2739.2 365.431C2724.36 374.709 2712.53 387.236 2703.71 403.009C2694.9 418.319 2690.49 435.716 2690.49 455.201C2690.49 474.687 2694.9 492.084 2703.71 507.394C2712.53 522.703 2724.36 534.997 2739.2 544.276C2754.05 553.091 2770.98 557.498 2790 557.498C2809.02 557.498 2825.96 553.091 2840.8 544.276C2856.11 534.997 2868.17 522.703 2876.99 507.394C2885.8 491.62 2890.21 474.223 2890.21 455.201C2890.21 435.716 2885.8 418.319 2876.99 403.009C2868.17 387.236 2856.11 374.709 2840.8 365.431C2825.96 356.152 2809.02 351.513 2790 351.513ZM3184.89 629.871C3159.37 629.871 3137.1 624.768 3118.08 614.562C3099.06 604.355 3083.98 589.509 3072.85 570.024C3061.72 550.075 3056.15 525.951 3056.15 497.651V193.545H3134.09V494.172C3134.09 514.121 3140.12 529.662 3152.18 540.797C3164.24 551.931 3178.63 557.498 3195.33 557.498C3199.5 557.498 3204.14 557.034 3209.25 556.106C3214.35 555.178 3218.76 554.251 3222.47 553.323L3226.64 621.521C3221.08 623.84 3214.58 625.696 3207.16 627.088C3199.74 628.943 3192.31 629.871 3184.89 629.871ZM2991.43 358.472V284.707H3223.16V358.472H2991.43ZM3432.91 631.959C3400.43 631.959 3370.74 624.304 3343.83 608.994C3316.92 593.221 3295.58 571.88 3279.81 544.972C3264.5 517.6 3256.84 486.981 3256.84 453.114C3256.84 428.525 3261.25 405.561 3270.07 384.22C3278.88 362.879 3291.17 344.322 3306.95 328.548C3322.72 312.311 3341.28 299.785 3362.62 290.97C3383.96 282.155 3406.93 277.748 3431.51 277.748C3462.13 277.748 3489.74 284.939 3514.33 299.321C3539.38 313.703 3559.09 333.188 3573.48 357.776C3587.86 381.9 3595.05 409.272 3595.05 439.892C3595.05 444.531 3594.82 449.866 3594.35 455.897C3593.89 461.928 3593.19 467.728 3592.27 473.295H3296.51V417.623H3516.41C3514.56 403.241 3509.45 390.483 3501.1 379.349C3493.22 367.751 3482.78 358.936 3469.79 352.905C3457.26 346.41 3443.34 343.162 3428.03 343.162C3412.72 343.162 3399.04 345.714 3386.98 350.817C3374.91 355.92 3364.71 363.111 3356.36 372.39C3348.01 381.668 3341.51 393.035 3336.87 406.489C3332.23 419.943 3329.91 434.788 3329.91 451.026C3329.91 474.223 3334.32 494.404 3343.14 511.569C3351.95 528.27 3364.24 541.261 3380.02 550.539C3395.79 559.818 3414.12 564.457 3434.99 564.457C3454.01 564.457 3471.64 560.514 3487.88 552.627C3504.58 544.74 3516.65 534.07 3524.07 520.616L3585.31 558.194C3572.78 581.391 3552.83 599.484 3525.46 612.474C3498.55 625.464 3467.7 631.959 3432.91 631.959Z" fill="#3ACC7C"/>
</svg>
